<svg xmlns="http://www.w3.org/2000/svg" id="Layer_2" data-name="Layer 2" viewBox="0 0 640 510">
  <defs>
    <style> .cls-1 { fill: #088180; } .cls-1, .cls-2 { stroke-width: 0px; } .cls-2 { fill: #fff; } </style>
  <linearGradient id="it-top-f12b-horizontal-gradient-22dd5c" x1="0%" y1="0%" x2="100%" y2="0%"><stop offset="0.00%" style="stop-color:#009246" /><stop offset="21.77%" style="stop-color:#009246" /><stop offset="44.90%" style="stop-color:#FFFFFF" /><stop offset="55.10%" style="stop-color:#FFFFFF" /><stop offset="78.23%" style="stop-color:#CE2B37" /><stop offset="100.00%" style="stop-color:#CE2B37" /></linearGradient></defs>
  <g id="Layer_1-2" data-name="Layer 1">
    <path class="cls-1" d="m200.76,164.31s0,.02-.01.04c.01-.02.01-.03.01-.04Z" /><path class="cls-1" d="m336.98,299.22s-.03.01-.04.02c.02-.01.03-.01.04-.02Z" /><path class="cls-2" d="m335.97,494.14c2.17,4.26.47,9.47-3.78,11.64-4.27,2.17-9.48.47-11.64-3.79-2.17-4.27-.49-9.47,3.79-11.63,4.26-2.17,9.47-.47,11.63,3.78Z" /><path class="cls-2" d="m92.66,263.59c23.4,46.34,57.14,86.7,98.33,117.92,30.62-17.89,50.22-52.01,47.69-89.8-2.04-30.52-18.07-56.76-41.39-72.92-7.45-5.16-15.62-9.29-24.34-12.22-3.41-1.13-6.91-2.08-10.47-2.83-42.4-13.57-75.36-49.41-84.13-94.6l-.14-.1C27.48,144.39-4.01,204.67.41,270.87c3.66,54.84,31.24,102.41,71.85,133.18-.18-.14-.34-.28-.52-.42,14.29,11.07,33.1,16.81,52.58,15.51,23.41-1.57,43.64-13.48,56.61-30.95-38.23-34.09-68.6-76.67-88.27-124.61Zm-35.79,124.1s.01.02.03.03t-.03-.03Z" /><path d="m284.59,97c-12.86,39.08-16.58,80.63-10.99,121.21,27.19,7.15,57.32-1,77.07-23.6,15.96-18.25,21.7-41.94,17.67-64.09-1.28-7.07-3.54-13.98-6.8-20.49-1.27-2.55-2.69-5.03-4.27-7.46-16.16-31.37-14.56-69.93,5.86-100.17v-.14c-48.26-8.63-99.72,7.51-134.33,47.09-28.7,32.81-39.9,74.91-34.39,114.94-.02-.18-.04-.35-.05-.52,1.8,14.22,9.12,27.98,20.78,38.16,14,12.25,32,16.92,49.07,14.38-2.3-40.53,4.54-81.42,20.38-119.31Zm-89.63,49.5s0,.02-.02.04c.02-.02.02-.03.02-.04Z" processed="true" fill="url(#it-top-f12b-horizontal-gradient-22dd5c)" /><path class="cls-2" d="m465.83,320.23c-50.27,25.39-94.07,62.01-127.93,106.7,19.4,33.22,56.42,54.48,97.43,51.75,33.12-2.21,61.59-19.61,79.13-44.93,5.6-8.07,10.09-16.96,13.25-26.42,1.23-3.7,2.25-7.49,3.08-11.35,14.72-46,53.61-81.77,102.64-91.29l.12-.13c-38.36-55.05-103.77-89.23-175.59-84.43-59.53,3.97-111.13,33.87-144.53,77.94.15-.19.31-.36.46-.55-12.02,15.51-18.24,35.91-16.82,57.05,1.68,25.4,14.61,47.35,33.56,61.42,37-41.46,83.2-74.42,135.21-95.77Zm-134.66-38.82s-.02,0-.02.02c0-.02.01-.02.02-.02Z" /><path class="cls-2" d="m269.5,241.69c-.11.05-.23.11-.35.17-1.69,5.97-3.23,12.03-4.57,18.18-18.98,87.93,3.98,175.16,55.42,240.84,5.66-1.54,11.11-3.67,16.27-6.28-53.72-69.9-79.88-160.26-66.77-252.92Z" /><path class="cls-2" d="m192.17,390.42c-.03.13-.04.28-.06.41,4.35,4.94,8.88,9.79,13.59,14.52,30.01,29.98,64.64,52.48,101.6,67.51-4.39-6.59-8.54-13.37-12.42-20.29-36.69-14.44-71.5-35.14-102.72-62.16Z" />
  </g>
</svg>